# xmcd
#
# Track frame offsets: 
#        183
#        14663
#        31670
#        44160
#        58340
#        74870
#        90320
#        102118
#        121418
#        138813
#        148418
#        164855
#        176833
#        192233
#        205675
#        216683
#        230015
#        245693
#        262718
#
# Disc length: 3708 seconds
#
# Revision: 3
# Processed by: cddbd v1.5.2PL0 Copyright (c) Steve Scherf et al.
# Submitted via: ExactAudioCopy v0.99pb5
#
DISCID=300e7a13
DTITLE=Erroll Garner - Erroll Garner Trio (1950-1951)
DYEAR=1996
DGENRE=Jazz
TTITLE0=Lover
TTITLE1=When You're Smiling
TTITLE2=Laura
TTITLE3=Poor Butterfly
TTITLE4=I Cover The Waterfront
TTITLE5=How High The Moon
TTITLE6=The Petite Waltz
TTITLE7=My Heart Stood Still
TTITLE8=People Will Say We're In Love
TTITLE9=Indiana
TTITLE10=I'm In The Mood For Love
TTITLE11=Long Ago And Far Away
TTITLE12=Honeysuckle Rose
TTITLE13=I Can't Get Started
TTITLE14=Spring Is Here
TTITLE15=Penthouse Serenade
TTITLE16=I Don't Know Why
TTITLE17=It Could Happen To You
TTITLE18=When Johnny Comes Marching Home
EXTD=Label: Giants of Jazz CD 53216 AAD\nwith John Simmons and Shadow 
EXTD=Wilson\nRec.: 2,4,8,12,15,17,18. and 19 New York, June 28, 1950\n1,
EXTD=6, 7, 9  New York, Oktober 1950\n3, 5, 10,11, 13,14, 16 New York
EXTD=, January 11, 1951\nErroll Garner Trio\nErroll Garner (p), John S
EXTD=immons (b), Shadow Wilson (d) YEAR: 1996
EXTT0=
EXTT1=
EXTT2=
EXTT3=
EXTT4=
EXTT5=
EXTT6=
EXTT7=
EXTT8=
EXTT9=
EXTT10=
EXTT11=
EXTT12=
EXTT13=
EXTT14=
EXTT15=
EXTT16=
EXTT17=
EXTT18=
PLAYORDER=
